<?xml version="1.0" encoding="UTF-8"?>
<svg version="1.1" xmlns="http://www.w3.org/2000/svg" width="720" height="720">
<path d="M0 0 C237.6 0 475.2 0 720 0 C720 237.6 720 475.2 720 720 C482.4 720 244.8 720 0 720 C0 482.4 0 244.8 0 0 Z " fill="#06131D" transform="translate(0,0)"/>
<path d="M0 0 C16.83 0 33.66 0 51 0 C51 60.72 51 121.44 51 184 C64.75817503 174.0839076 64.75817503 174.0839076 78.4375 164.0625 C80.02992983 162.88669425 81.6223783 161.71091375 83.21484375 160.53515625 C84.00487793 159.95137207 84.79491211 159.36758789 85.60888672 158.76611328 C90.35999147 155.25687377 95.11681291 151.75538724 99.87255859 148.25244141 C103.84531489 145.32579251 107.81667846 142.39729226 111.78515625 139.46484375 C120.23340257 133.22528928 128.71006584 127.0293578 137.23291016 120.89208984 C145.06877486 115.24281917 152.83992854 109.50687108 160.60888672 103.76611328 C164.56991162 100.84043897 168.53515717 97.92049694 172.5 95 C174.08335379 93.8333611 175.66668712 92.66669442 177.25 91.5 C197.83333333 76.33333333 218.41666667 61.16666667 239 46 C243.08804676 47.84500499 244.87940266 50.12538745 247.5625 53.75 C248.44303806 54.9278109 249.32458504 56.10486805 250.20703125 57.28125 C250.66287598 57.89226562 251.1187207 58.50328125 251.58837891 59.1328125 C254.34198718 62.77508093 257.20727566 66.33166327 260.06860352 69.88964844 C263.65873617 74.41211552 266.84927849 79.16343788 270 84 C257.83578321 93.57220313 245.49616227 102.86671149 233 112 C222.12792856 119.95671881 211.32884816 127.9965652 200.62548828 136.17919922 C194.80512955 140.62879396 188.95946412 145.04179132 183.09033203 149.42675781 C177.59443813 153.53936901 172.14061253 157.70590524 166.6875 161.875 C159.2374511 167.56765675 151.72865572 173.17020784 144.16479492 178.71044922 C138.2237217 183.07237469 132.3527001 187.52036737 126.5 192 C119.12231856 197.64684708 111.68627363 203.20239774 104.19042969 208.69116211 C97.09636377 213.89877711 90.09715072 219.22721387 83.11523438 224.58398438 C78.46791727 228.14463341 73.78724198 231.62952288 69 235 C72.90260561 240.48474302 77.17776036 245.45007705 81.76123047 250.36645508 C84.78591051 253.62799538 87.65323394 256.96476088 90.4375 260.4375 C94.28110057 265.21621628 98.36960164 269.69157687 102.55834961 274.16381836 C105.67553945 277.51099327 108.63573798 280.93005023 111.5 284.5 C115.83927344 289.90436782 120.50396415 294.94955123 125.2265625 300.015625 C129.53105514 304.63353761 133.64312405 309.40761607 137.73828125 314.2109375 C138.76283092 315.41162041 139.78757646 316.61213621 140.8125 317.8125 C141.32981689 318.41868164 141.84713379 319.02486328 142.38012695 319.64941406 C145.58502229 323.3907082 148.85209278 327.06115383 152.1875 330.6875 C155.35830742 334.14015696 158.38035031 337.65530966 161.3125 341.3125 C165.38748445 346.36836567 169.75231994 351.08187223 174.20019531 355.80566406 C178.24239798 360.12191437 181.995808 364.60485366 185.69140625 369.22265625 C188.3527935 372.4244267 191.15460827 375.4623641 194 378.5 C197.62950608 382.37472764 201.11747959 386.28899743 204.4375 390.4375 C207.96421709 394.83627805 211.70004158 398.9617408 215.5625 403.0625 C230 418.40522496 230 418.40522496 230 421 C222.35923782 421.0694906 214.71850838 421.1228064 207.07750225 421.15543652 C203.52950064 421.17109693 199.98171513 421.19234151 196.43383789 421.22631836 C192.35561033 421.26513007 188.27760999 421.27970602 184.19921875 421.29296875 C182.28661507 421.31619453 182.28661507 421.31619453 180.33537292 421.33988953 C179.15437515 421.34011612 177.97337738 421.34034271 176.7565918 421.34057617 C175.19439156 421.35056892 175.19439156 421.35056892 173.60063171 421.36076355 C171 421 171 421 169.14021301 419.60371399 C168 418 168 418 168 416 C167.01 415.67 166.02 415.34 165 415 C163.59765625 413.609375 163.59765625 413.609375 162.0625 411.75 C158.93572189 408.06720486 155.7207971 404.48073818 152.4375 400.9375 C151.92977051 400.38876221 151.42204102 399.84002441 150.89892578 399.2746582 C146.32682582 394.34019575 141.73241706 389.42655592 137.13793945 384.51293945 C133.6107348 380.73729226 130.10762944 376.94179479 126.625 373.125 C122.0906462 368.16135827 117.49053677 363.26316653 112.875 358.375 C107.95831345 353.1668193 103.09356803 347.92560688 98.328125 342.578125 C94.70023975 338.56066818 90.99176581 334.61910182 87.29248047 330.66748047 C82.78322638 325.84782867 78.31813876 320.99078102 73.8671875 316.1171875 C71.72055711 313.77499221 69.55533695 311.45100648 67.3828125 309.1328125 C66.75955078 308.46765625 66.13628906 307.8025 65.49414062 307.1171875 C64.28338706 305.82672915 63.07123507 304.53758085 61.85742188 303.25 C61.29861328 302.65445312 60.73980469 302.05890625 60.1640625 301.4453125 C59.67373535 300.92469238 59.1834082 300.40407227 58.67822266 299.86767578 C56.37905436 297.30895634 54.20219898 294.64263877 52 292 C51.67 335.23 51.34 378.46 51 423 C34.17 423 17.34 423 0 423 C-0.13185422 403.62900256 -0.2625191 384.25799819 -0.39115143 364.8869791 C-0.4509471 355.88761959 -0.51122735 346.88826387 -0.57275391 337.88891602 C-0.62653566 330.02218525 -0.67930098 322.15544834 -0.73096704 314.28870338 C-0.75821924 310.14416531 -0.78589729 305.99963134 -0.81480408 301.85510445 C-1.10229536 260.50322231 -0.98830471 219.1551905 -0.79807091 177.80301547 C-0.76937826 171.52249362 -0.7417471 165.24196708 -0.71398926 158.96144104 C-0.66159252 147.14095324 -0.60828157 135.32046977 -0.5546174 123.49998766 C-0.51175205 114.05329762 -0.46934294 104.60660561 -0.42724609 95.15991211 C-0.4242591 94.48964878 -0.4212721 93.81938545 -0.41819459 93.12881111 C-0.40320425 89.76453891 -0.38822144 86.40026667 -0.37324238 83.03599441 C-0.24997967 55.35732435 -0.12529257 27.67866095 0 0 Z " fill="#24A1F8" transform="translate(225,149)"/>
<path d="M0 0 C0.495 0.495 0.495 0.495 1 1 C3.32817964 1.36760731 5.6618385 1.70241581 8 2 C3.74888604 6.79455534 -1.1379748 9.68017568 -6.6875 12.8125 C-7.55439453 13.31458984 -8.42128906 13.81667969 -9.31445312 14.33398438 C-15.72374575 18 -15.72374575 18 -18 18 C-18.33 61.23 -18.66 104.46 -19 149 C-35.83 149 -52.66 149 -70 149 C-70.33 104.78 -70.66 60.56 -71 15 C-69.35 14.34 -67.7 13.68 -66 13 C-64.18608938 11.88971547 -62.39494083 10.74161531 -60.625 9.5625 C-53.90854889 5.23710549 -47.45061858 2.72534033 -39.74609375 0.74609375 C-36.94600163 0.02868065 -36.94600163 0.02868065 -34.08984375 -1.07421875 C-23.6660725 -4.19739674 -10.6133076 -1.84990222 0 0 Z " fill="#2C78FE" transform="translate(295,423)"/>
<path d="M0 0 C12.70003315 0.96586013 12.70003315 0.96586013 18 2 C19.299375 2.2475 19.299375 2.2475 20.625 2.5 C22.76563812 2.95066066 24.88267689 3.45106438 27 4 C27 4.66 27 5.32 27 6 C30.73486879 6.5745952 34.21293268 7 38 7 C38 7.66 38 8.32 38 9 C38.7425 9.144375 39.485 9.28875 40.25 9.4375 C44.16449282 10.23819171 46.6241048 10.7494032 50 13 C51.155 13.309375 52.31 13.61875 53.5 13.9375 C56.94250715 14.98254681 57.71205405 15.50405897 60 18 C62.59915538 19.19027984 62.59915538 19.19027984 65 20 C65 20.99 65 21.98 65 23 C65.825 22.5875 66.65 22.175 67.5 21.75 C72.35243513 20.71019247 74.90907043 22.48729707 79 25 C74.44610778 28.75818525 69.09015163 31.29538567 63.90625 34.06445312 C59.14870103 36.65476292 54.92624436 39.45135291 50.76660156 42.9309082 C49 44 49 44 45.5 43.375 C44.675 42.92125 43.85 42.4675 43 42 C43 41.01 43 40.02 43 39 C41.2984375 39.2475 41.2984375 39.2475 39.5625 39.5 C36 40 36 40 35 40 C35.99 40.495 35.99 40.495 37 41 C36.43738888 44.79336287 34.83201153 46.54494113 32.125 49.1875 C31.42632812 49.88230469 30.72765625 50.57710938 30.0078125 51.29296875 C28 53 28 53 25 54 C25 54.99 25 55.98 25 57 C28.07364028 56.35736542 28.07364028 56.35736542 28.9609375 54.203125 C29.30382812 53.47609375 29.64671875 52.7490625 30 52 C35.84400647 44.48235787 35.84400647 44.48235787 40.3046875 43.484375 C42.5 43.5 42.5 43.5 46 44 C46.33 44.66 46.66 45.32 47 46 C47.99 46 48.98 46 50 46 C49 49 49 49 46 51 C45.01 51 44.02 51 43 51 C42.34 52.32 41.68 53.64 41 55 C44.90791244 53.34665243 47.78998799 50.73192511 51 48 C51.99 47.34 52.98 46.68 54 46 C55.010625 45.29875 56.02125 44.5975 57.0625 43.875 C60 42 60 42 62 42 C62 41.34 62 40.68 62 40 C67.33333333 37.33333333 72.66666667 34.66666667 78 32 C78.67836914 31.62987793 79.35673828 31.25975586 80.05566406 30.87841797 C82 30 82 30 85 30 C85 30.66 85 31.32 85 32 C75.595 36.95 75.595 36.95 66 42 C67.98 41.67 69.96 41.34 72 41 C72 40.34 72 39.68 72 39 C73.03125 38.566875 74.0625 38.13375 75.125 37.6875 C77.58662377 36.64814774 79.83306577 35.54263056 82.1875 34.25 C85 33 85 33 89 34 C82.4 38.95 75.8 43.9 69 49 C70.32 51.31 71.64 53.62 73 56 C72.01 56.495 72.01 56.495 71 57 C71.99 57.99 72.98 58.98 74 60 C71.06830554 61.67703806 68.12875476 63.33979518 65.1875 65 C64.35412109 65.47695313 63.52074219 65.95390625 62.66210938 66.4453125 C61.85966797 66.89648438 61.05722656 67.34765625 60.23046875 67.8125 C59.49207764 68.23144531 58.75368652 68.65039062 57.99291992 69.08203125 C56 70 56 70 53 70 C53 70.66 53 71.32 53 72 C48.46843078 75.63790897 43.69553551 78.99026882 37.75390625 79.01171875 C35.08416047 78.50137723 32.56839236 77.88478083 30 77 C29.01 78.32 28.02 79.64 27 81 C26.34 80.67 25.68 80.34 25 80 C25.33 79.67 25.66 79.34 26 79 C24.02 78.34 22.04 77.68 20 77 C20 78.32 20 79.64 20 81 C18.515 81.99 18.515 81.99 17 83 C17.495 81.515 17.495 81.515 18 80 C14.04 79.34 10.08 78.68 6 78 C7.625 75.5 7.625 75.5 10 73 C13.25 72.6875 13.25 72.6875 16 73 C16.33 74.32 16.66 75.64 17 77 C17 75.68 17 74.36 17 73 C16.195625 72.855625 15.39125 72.71125 14.5625 72.5625 C12 72 12 72 11 71 C10.36771484 71.74056641 10.36771484 71.74056641 9.72265625 72.49609375 C9.17480469 73.13675781 8.62695312 73.77742188 8.0625 74.4375 C7.51722656 75.07558594 6.97195312 75.71367187 6.41015625 76.37109375 C5.63204305 77.26991149 4.84063472 78.15936528 4 79 C6.64 79 9.28 79 12 79 C12.66 80.98 13.32 82.96 14 85 C13.21625 85.2475 12.4325 85.495 11.625 85.75 C8.67682892 87.15389099 8.0975223 88.00675737 7 91 C8.32 91.33 9.64 91.66 11 92 C8 94 8 94 4 94 C1.74934898 95.91666921 1.74934898 95.91666921 0 98 C-0.92358715 86.7118295 -1.15857549 75.5088021 -1.125 64.1875 C-1.12411377 63.3219046 -1.12322754 62.4563092 -1.12231445 61.56448364 C-1.09799845 41.03593306 -0.58773232 20.51904845 0 0 Z " fill="#2D79FE" transform="translate(225,335)"/>
<path d="M0 0 C19.56346726 -0.50235398 38.02282167 0.86593947 57.0625 5.5 C57.88975586 5.70133545 58.71701172 5.9026709 59.56933594 6.11010742 C67.08847377 8.06517737 71.54382062 11.1981518 76.75 17 C77.27730713 17.57886963 77.80461426 18.15773926 78.34790039 18.75415039 C82.25758009 23.08143205 85.93813744 27.56738597 89.5859375 32.1171875 C92.46060932 35.55004802 95.49339093 38.80403716 98.5625 42.0625 C113 57.40522496 113 57.40522496 113 60 C105.35923782 60.0694906 97.71850838 60.1228064 90.07750225 60.15543652 C86.52950064 60.17109693 82.98171513 60.19234151 79.43383789 60.22631836 C75.35561033 60.26513007 71.27760999 60.27970602 67.19921875 60.29296875 C65.92414963 60.30845261 64.64908051 60.32393646 63.33537292 60.33988953 C62.15437515 60.34011612 60.97337738 60.34034271 59.7565918 60.34057617 C58.19439156 60.35056892 58.19439156 60.35056892 56.60063171 60.36076355 C54 60 54 60 52.14021301 58.60371399 C51 57 51 57 51 55 C50.01 54.67 49.02 54.34 48 54 C46.59765625 52.609375 46.59765625 52.609375 45.0625 50.75 C41.93572189 47.06720486 38.7207971 43.48073818 35.4375 39.9375 C34.92977051 39.38876221 34.42204102 38.84002441 33.89892578 38.2746582 C29.33563388 33.34970189 24.75040543 28.44521355 20.16430664 23.54150391 C15.50734187 18.55722289 10.89595287 13.53309107 6.3046875 8.48828125 C4.81433798 6.87920898 3.27935699 5.30989271 1.6953125 3.79296875 C0 2 0 2 0 0 Z " fill="#1EC4F3" transform="translate(342,510)"/>
<path d="M0 0 C0 0.66 0 1.32 0 2 C-6.27 5.3 -12.54 8.6 -19 12 C-17.02 11.67 -15.04 11.34 -13 11 C-13 10.34 -13 9.68 -13 9 C-11.96875 8.566875 -10.9375 8.13375 -9.875 7.6875 C-7.41337623 6.64814774 -5.16693423 5.54263056 -2.8125 4.25 C0 3 0 3 4 4 C-2.6 8.95 -9.2 13.9 -16 19 C-14.68 21.31 -13.36 23.62 -12 26 C-12.66 26.33 -13.32 26.66 -14 27 C-13.01 27.99 -12.02 28.98 -11 30 C-13.93169446 31.67703806 -16.87124524 33.33979518 -19.8125 35 C-20.64587891 35.47695313 -21.47925781 35.95390625 -22.33789062 36.4453125 C-23.14033203 36.89648438 -23.94277344 37.34765625 -24.76953125 37.8125 C-25.50792236 38.23144531 -26.24631348 38.65039062 -27.00708008 39.08203125 C-29 40 -29 40 -32 40 C-32 40.66 -32 41.32 -32 42 C-36.53156922 45.63790897 -41.30446449 48.99026882 -47.24609375 49.01171875 C-49.91583953 48.50137723 -52.43160764 47.88478083 -55 47 C-55.99 48.32 -56.98 49.64 -58 51 C-58.66 50.67 -59.32 50.34 -60 50 C-59.67 49.67 -59.34 49.34 -59 49 C-60.98 48.34 -62.96 47.68 -65 47 C-65 48.32 -65 49.64 -65 51 C-65.99 51.66 -66.98 52.32 -68 53 C-67.67 52.01 -67.34 51.02 -67 50 C-70.96 49.34 -74.92 48.68 -79 48 C-77.375 45.5 -77.375 45.5 -75 43 C-71.75 42.6875 -71.75 42.6875 -69 43 C-68.67 44.32 -68.34 45.64 -68 47 C-68 45.68 -68 44.36 -68 43 C-69.65 42.67 -71.3 42.34 -73 42 C-71.59419466 37.82017235 -69.61246065 35.03382137 -66.6875 31.75 C-65.92824219 30.87859375 -65.16898438 30.0071875 -64.38671875 29.109375 C-61.75313073 26.78181767 -60.34348025 26.64965445 -57 26 C-55.84254172 24.18610208 -55.84254172 24.18610208 -55 22 C-49.15599353 14.48235787 -49.15599353 14.48235787 -44.6953125 13.484375 C-42.5 13.5 -42.5 13.5 -39 14 C-38.505 14.99 -38.505 14.99 -38 16 C-37.01 16 -36.02 16 -35 16 C-36 19 -36 19 -39 21 C-39.99 21 -40.98 21 -42 21 C-42.66 22.32 -43.32 23.64 -44 25 C-40.09208756 23.34665243 -37.21001201 20.73192511 -34 18 C-33.01 17.34 -32.02 16.68 -31 16 C-29.989375 15.29875 -28.97875 14.5975 -27.9375 13.875 C-25 12 -25 12 -23 12 C-23 11.34 -23 10.68 -23 10 C-17.66666667 7.33333333 -12.33333333 4.66666667 -7 2 C-6.32163086 1.62987793 -5.64326172 1.25975586 -4.94433594 0.87841797 C-3 0 -3 0 0 0 Z " fill="#3587FE" transform="translate(310,365)"/>
<path d="M0 0 C2.912575 0.08566397 4.56798024 0.57910955 6.66796875 2.625 C8.16091772 4.38391375 9.60436262 6.16313019 11 8 C9.55613418 11.71279784 7.87763608 12.9486443 4.375 14.75 C3.55773437 15.17796875 2.74046875 15.6059375 1.8984375 16.046875 C0.95871094 16.51867187 0.95871094 16.51867187 0 17 C1.093125 16.484375 2.18625 15.96875 3.3125 15.4375 C7 14 7 14 10 15 C6.04 16.98 2.08 18.96 -2 21 C-0.88625 21.2475 0.2275 21.495 1.375 21.75 C5 23 5 23 6.4375 25.125 C6.623125 25.74375 6.80875 26.3625 7 27 C8.98 27 10.96 27 13 27 C13 27.66 13 28.32 13 29 C14.65 29 16.3 29 18 29 C18.495 31.475 18.495 31.475 19 34 C17.9275 33.938125 16.855 33.87625 15.75 33.8125 C11.89133813 34.00543309 10.71182212 34.39665076 8 37 C7.34 36.67 6.68 36.34 6 36 C6.33 35.67 6.66 35.34 7 35 C-8.92898048 31.39728607 -25.22897744 28.08586654 -41 34 C-43.1875 34.65625 -43.1875 34.65625 -45.375 35.3125 C-53.97134508 38.2236736 -61.78094012 42.5455992 -69 48 C-69.33 48 -69.66 48 -70 48 C-70.34718988 44.26770881 -70.23503152 42.40042406 -68.3125 39.125 C-66 37 -66 37 -63.25 36.6875 C-62.5075 36.790625 -61.765 36.89375 -61 37 C-61.33 36.67 -61.66 36.34 -62 36 C-62.66 36 -63.32 36 -64 36 C-62.92598892 33.08482708 -62.22189824 31.22189824 -60 29 C-58.68 29 -57.36 29 -56 29 C-56 28.34 -56 27.68 -56 27 C-56.66 26.67 -57.32 26.34 -58 26 C-58 25.34 -58 24.68 -58 24 C-60.97 24 -63.94 24 -67 24 C-67 23.34 -67 22.68 -67 22 C-66.34 22 -65.68 22 -65 22 C-64.79375 21.443125 -64.5875 20.88625 -64.375 20.3125 C-62.44999226 17.07498698 -59.96149098 15.31768859 -57 13 C-57 13.66 -57 14.32 -57 15 C-54.525 15.99 -54.525 15.99 -52 17 C-52.33 18.65 -52.66 20.3 -53 22 C-53.33 20.68 -53.66 19.36 -54 18 C-56.87450983 17.74951364 -56.87450983 17.74951364 -60 18 C-60.99 18.99 -61.98 19.98 -63 21 C-57.06 21.99 -57.06 21.99 -51 23 C-51 23.66 -51 24.32 -51 25 C-50.34 24.01 -49.68 23.02 -49 22 C-49.66 21.67 -50.32 21.34 -51 21 C-49 20 -49 20 -45.875 20.9375 C-44.92625 21.288125 -43.9775 21.63875 -43 22 C-43 22.66 -43 23.32 -43 24 C-42.34 23.34 -41.68 22.68 -41 22 C-41.66 21.34 -42.32 20.68 -43 20 C-41.205625 20.2165625 -41.205625 20.2165625 -39.375 20.4375 C-38.63765625 20.52 -37.9003125 20.6025 -37.140625 20.6875 C-35 21 -35 21 -32.125 21.9375 C-27.58680644 22.02826387 -24.87822814 19.81294266 -21.171875 17.34765625 C-19 16 -19 16 -17 16 C-17 15.34 -17 14.68 -17 14 C-17.99 13.67 -18.98 13.34 -20 13 C-18 12 -18 12 -16.1159668 12.55224609 C-13.40232972 13.12647136 -12.50871514 12.54625546 -10.14453125 11.1640625 C-9.44005859 10.75929688 -8.73558594 10.35453125 -8.00976562 9.9375 C-7.28466797 9.504375 -6.55957031 9.07125 -5.8125 8.625 C-5.07580078 8.19960938 -4.33910156 7.77421875 -3.58007812 7.3359375 C-0.08839401 5.44122932 -0.08839401 5.44122932 3 3 C2.01 2.01 1.02 1.02 0 0 Z " fill="#429EFE" transform="translate(295,391)"/>
<path d="M0 0 C2.80901755 1.62627332 4.60993337 3.73850836 6.7421875 6.1796875 C7.18232178 6.67919922 7.62245605 7.17871094 8.07592773 7.69335938 C9.36747656 9.16187466 10.64878539 10.63937652 11.9296875 12.1171875 C12.55359375 12.81714844 13.1775 13.51710938 13.8203125 14.23828125 C27.9296875 30.09484521 27.9296875 30.09484521 27.9296875 32.1171875 C20.27161535 32.16347918 12.61355766 32.19904053 4.95537758 32.22081184 C1.39956351 32.23125974 -2.156155 32.24543709 -5.71191406 32.26806641 C-9.7975355 32.29390582 -13.88305619 32.30365194 -17.96875 32.3125 C-19.24898041 32.32282257 -20.52921082 32.33314514 -21.84823608 32.34378052 C-23.61984604 32.34400711 -23.61984604 32.34400711 -25.42724609 32.34423828 C-26.47093353 32.3486795 -27.51462097 32.35312073 -28.5899353 32.35769653 C-31.0703125 32.1171875 -31.0703125 32.1171875 -33.0703125 30.1171875 C-32.87945281 27.38340305 -32.23118105 26.2849092 -30.328125 24.30078125 C-29.62429688 23.72457031 -28.92046875 23.14835938 -28.1953125 22.5546875 C-23.45021216 18.9048018 -23.45021216 18.9048018 -20.1953125 14.0546875 C-19.0703125 12.1171875 -19.0703125 12.1171875 -16.87890625 11.3203125 C-12.73410991 9.54479473 -9.72007818 6.50941826 -6.44335938 3.48632812 C-2.65339292 0.15019205 -2.65339292 0.15019205 0 0 Z " fill="#1DDEF1" transform="translate(427.0703125,537.8828125)"/>
<path d="M0 0 C1.02577148 0.00676758 1.02577148 0.00676758 2.07226562 0.01367188 C3.73571604 0.0253044 5.3991205 0.04323306 7.0625 0.0625 C3.21647748 4.29626866 -1.39498842 7.46767082 -6 10.8125 C-7.71751415 12.06371117 -9.43496245 13.31501274 -11.15234375 14.56640625 C-12.39153564 15.46770264 -12.39153564 15.46770264 -13.65576172 16.38720703 C-15.56175084 17.78661826 -17.44581138 19.20627275 -19.31640625 20.65234375 C-24.08422434 24.29433282 -28.19743144 26.88262824 -34.00390625 28.4765625 C-36.17190937 29.04778324 -36.17190937 29.04778324 -38.75 30.75 C-40.9375 32.0625 -40.9375 32.0625 -44.9375 32.0625 C-44.9375 32.7225 -44.9375 33.3825 -44.9375 34.0625 C-47.2475 34.7225 -49.5575 35.3825 -51.9375 36.0625 C-49.9236609 33.90511682 -48.03546497 32.40484338 -45.43359375 31.01953125 C-44.77552734 30.66826172 -44.11746094 30.31699219 -43.43945312 29.95507812 C-42.75818359 29.59865234 -42.07691406 29.24222656 -41.375 28.875 C-40.34729492 28.32295898 -40.34729492 28.32295898 -39.29882812 27.75976562 C-34.19954487 25.0625 -34.19954487 25.0625 -31.9375 25.0625 C-31.9375 24.4025 -31.9375 23.7425 -31.9375 23.0625 C-38.36037509 25.93203545 -44.69919965 28.89858382 -50.94140625 32.14453125 C-52.9375 33.0625 -52.9375 33.0625 -54.9375 33.0625 C-54.9375 33.7225 -54.9375 34.3825 -54.9375 35.0625 C-58.4025 37.0425 -58.4025 37.0425 -61.9375 39.0625 C-61.9375 39.7225 -61.9375 40.3825 -61.9375 41.0625 C-62.66324219 41.31773437 -63.38898438 41.57296875 -64.13671875 41.8359375 C-67.0927984 43.13051074 -69.24314666 44.66705104 -71.75 46.6875 C-72.54019531 47.31914062 -73.33039063 47.95078125 -74.14453125 48.6015625 C-74.73621094 49.08367187 -75.32789063 49.56578125 -75.9375 50.0625 C-76.5975 49.7325 -77.2575 49.4025 -77.9375 49.0625 C-75.04565664 44.94718445 -72.45991917 43.17296228 -67.9375 41.0625 C-67.6075 40.4025 -67.2775 39.7425 -66.9375 39.0625 C-69.4125 39.5575 -69.4125 39.5575 -71.9375 40.0625 C-71.6075 39.0725 -71.2775 38.0825 -70.9375 37.0625 C-75.4752902 36.97999472 -77.8341138 37.17979104 -81.4375 40.0625 C-85.69552258 44.17805086 -85.69552258 44.17805086 -88.9375 49.0625 C-88.2775 49.3925 -87.6175 49.7225 -86.9375 50.0625 C-89.9075 50.5575 -89.9075 50.5575 -92.9375 51.0625 C-92.75 48.75 -92.75 48.75 -91.9375 46.0625 C-89.75 44.625 -89.75 44.625 -86.9375 43.0625 C-83.7468568 40.30033646 -81.28806867 38.11420602 -79.9375 34.0625 C-82.5775 33.4025 -85.2175 32.7425 -87.9375 32.0625 C-83.86732104 31.04495526 -81.95560698 31.30910494 -77.9375 32.0625 C-76.6175 32.0625 -75.2975 32.0625 -73.9375 32.0625 C-73.6075 33.0525 -73.2775 34.0425 -72.9375 35.0625 C-69.30044844 36.17393074 -69.30044844 36.17393074 -65.82421875 34.9453125 C-65.09847656 34.36523438 -64.37273437 33.78515625 -63.625 33.1875 C-59.10977878 29.80959694 -54.47045669 26.9436048 -49.5625 24.1875 C-48.87244873 23.79449707 -48.18239746 23.40149414 -47.47143555 22.99658203 C-44.31863107 21.23632086 -41.46262358 19.82790564 -37.9375 19.0625 C-40.06530579 16.72191363 -42.05312221 15.35549694 -44.9375 14.0625 C-43.9375 11.0625 -43.9375 11.0625 -40.54296875 9.34375 C-39.07606327 8.73593111 -37.6029247 8.14301192 -36.125 7.5625 C-35.35687988 7.25425293 -34.58875977 6.94600586 -33.79736328 6.62841797 C-22.77041536 2.30552309 -11.88221206 -0.10515232 0 0 Z " fill="#259AF8" transform="translate(341.9375,341.9375)"/>
<path d="M0 0 C0 0.66 0 1.32 0 2 C-9.405 6.95 -9.405 6.95 -19 12 C-17.02 11.67 -15.04 11.34 -13 11 C-13 10.34 -13 9.68 -13 9 C-11.96875 8.566875 -10.9375 8.13375 -9.875 7.6875 C-7.41337623 6.64814774 -5.16693423 5.54263056 -2.8125 4.25 C0 3 0 3 4 4 C-5.9 11.425 -5.9 11.425 -16 19 C-14.68 21.31 -13.36 23.62 -12 26 C-12.99 26.495 -12.99 26.495 -14 27 C-13.01 27.99 -12.02 28.98 -11 30 C-13.76726538 31.73010626 -16.56659473 33.40015552 -19.375 35.0625 C-20.14972656 35.54783203 -20.92445313 36.03316406 -21.72265625 36.53320312 C-27.81019203 40.08007314 -32.13058524 40.45750588 -39 39 C-39 38.34 -39 37.68 -39 37 C-40.98 36.67 -42.96 36.34 -45 36 C-45.495 34.515 -45.495 34.515 -46 33 C-48.49759982 31.30117552 -48.49759982 31.30117552 -51 30 C-48.62538218 28.10030574 -46.29469388 26.60816327 -43.625 25.125 C-40.02740696 23.11775925 -37.11489297 20.69013484 -34 18 C-33.01 17.34 -32.02 16.68 -31 16 C-29.4840625 14.948125 -29.4840625 14.948125 -27.9375 13.875 C-25 12 -25 12 -23 12 C-23 11.34 -23 10.68 -23 10 C-17.66666667 7.33333333 -12.33333333 4.66666667 -7 2 C-6.32163086 1.62987793 -5.64326172 1.25975586 -4.94433594 0.87841797 C-3 0 -3 0 0 0 Z " fill="#3192FA" transform="translate(310,365)"/>
<path d="M0 0 C1.42341471 0.88507196 2.83843784 1.78364488 4.25 2.6875 C5.03890625 3.18636719 5.8278125 3.68523437 6.640625 4.19921875 C9.25151182 6.19196515 11.04779673 8.37168964 13 11 C10.23273462 12.73010626 7.43340527 14.40015552 4.625 16.0625 C3.85027344 16.54783203 3.07554687 17.03316406 2.27734375 17.53320312 C-3.81019203 21.08007314 -8.13058524 21.45750588 -15 20 C-15 19.34 -15 18.68 -15 18 C-16.98 17.67 -18.96 17.34 -21 17 C-21.33 16.01 -21.66 15.02 -22 14 C-24.49759982 12.30117552 -24.49759982 12.30117552 -27 11 C-25.68 10.01 -24.36 9.02 -23 8 C-22.67 8.66 -22.34 9.32 -22 10 C-22.33 10.66 -22.66 11.32 -23 12 C-20.73963445 12.83618283 -20.73963445 12.83618283 -18 13 C-15.49709919 11.55190907 -15.49709919 11.55190907 -13.1875 9.375 C-8.97067638 5.7714176 -4.76745251 2.82515704 0 0 Z " fill="#46A2FE" transform="translate(286,384)"/>
<path d="M0 0 C3.77406358 2.83221763 6.72201056 5.83467519 9.6875 9.5 C10.45449219 10.4384375 11.22148437 11.376875 12.01171875 12.34375 C13.65064704 14.53328092 14.90213669 16.51072703 16 19 C11.22338821 21.54752629 6.27658053 21.69961052 1 21 C-4.61971831 18.14084507 -4.61971831 18.14084507 -6 14 C-6.928125 14.061875 -7.85625 14.12375 -8.8125 14.1875 C-12 14 -12 14 -13.875 12.5 C-14.24625 12.005 -14.6175 11.51 -15 11 C-13.9275 10.731875 -12.855 10.46375 -11.75 10.1875 C-8.43491072 9.13772173 -6.56122354 8.25387672 -4 6 C-4.61488281 6.30035156 -5.22976563 6.60070312 -5.86328125 6.91015625 C-6.67152344 7.29042969 -7.47976563 7.67070312 -8.3125 8.0625 C-9.11300781 8.44535156 -9.91351563 8.82820313 -10.73828125 9.22265625 C-13 10 -13 10 -16 9 C-14.39318359 8.15115234 -14.39318359 8.15115234 -12.75390625 7.28515625 C-11.3567202 6.54436633 -9.95958753 5.80347571 -8.5625 5.0625 C-7.85544922 4.68931641 -7.14839844 4.31613281 -6.41992188 3.93164062 C-2.99521342 2.27507665 -2.99521342 2.27507665 0 0 Z " fill="#33A0F9" transform="translate(306,400)"/>
<path d="M0 0 C1.98 0 3.96 0 6 0 C6.66 1.32 7.32 2.64 8 4 C9.98 4 11.96 4 14 4 C14 4.66 14 5.32 14 6 C15.65 6 17.3 6 19 6 C19.495 8.475 19.495 8.475 20 11 C18.9275 10.938125 17.855 10.87625 16.75 10.8125 C12.89133813 11.00543309 11.71182212 11.39665076 9 14 C8.34 13.67 7.68 13.34 7 13 C7.33 12.67 7.66 12.34 8 12 C-7.8946996 8.40503949 -24.26884399 5.04328 -40 11 C-41.56068486 11.52624746 -43.12316937 12.04719109 -44.6875 12.5625 C-45.41195312 12.80742187 -46.13640625 13.05234375 -46.8828125 13.3046875 C-49.89839144 14.29504368 -52.94107933 15.15391556 -56 16 C-56 15.34 -56 14.68 -56 14 C-53.69 13.34 -51.38 12.68 -49 12 C-49 11.34 -49 10.68 -49 10 C-47.35 10 -45.7 10 -44 10 C-44 9.34 -44 8.68 -44 8 C-43.1646875 7.62875 -43.1646875 7.62875 -42.3125 7.25 C-39.84587301 6.03305996 -39.84587301 6.03305996 -37.5625 3.8125 C-35 2 -35 2 -32.3125 2.3125 C-31.549375 2.539375 -30.78625 2.76625 -30 3 C-29.34 2.67 -28.68 2.34 -28 2 C-23.75757884 1.45609985 -20.90351262 2.3824307 -17.0625 4 C-10.04502078 6.75271284 -3.43205345 6.36107142 4 6 C4 5.01 4 4.02 4 3 C2.68 2.34 1.36 1.68 0 1 C0 0.67 0 0.34 0 0 Z " fill="#3EA8FD" transform="translate(294,414)"/>
<path d="M0 0 C0.79921875 0.38027344 1.5984375 0.76054687 2.421875 1.15234375 C3.02515625 1.45269531 3.6284375 1.75304687 4.25 2.0625 C-0.30389222 5.82068525 -5.65984837 8.35788567 -10.84375 11.12695312 C-15.60129897 13.71726292 -19.82375564 16.51385291 -23.98339844 19.9934082 C-25.75 21.0625 -25.75 21.0625 -29.25 20.4375 C-30.075 19.98375 -30.9 19.53 -31.75 19.0625 C-31.58657156 15.14732292 -30.76219043 14.07416114 -27.87109375 11.30859375 C-26.65534354 10.35671697 -25.42674443 9.42108155 -24.1875 8.5 C-23.55215332 8.01547363 -22.91680664 7.53094727 -22.26220703 7.03173828 C-7.81279341 -3.79150268 -7.81279341 -3.79150268 0 0 Z " fill="#2F8BFD" transform="translate(299.75,357.9375)"/>
<path d="M0 0 C12.1875 4.95535714 12.1875 4.95535714 17 8 C16.38722388 10.96175123 15.74627478 12.38058783 14 15 C16.64 16.32 19.28 17.64 22 19 C22 19.66 22 20.32 22 21 C15.47692308 20.50769231 15.47692308 20.50769231 13.0625 17.9375 C12.711875 17.298125 12.36125 16.65875 12 16 C7.07216034 17.40795419 4.50762683 18.99491544 0 22 C0 14.74 0 7.48 0 0 Z " fill="#2C78FE" transform="translate(225,181)"/>
<path d="M0 0 C-1.27514492 2.55028983 -2.40341297 2.93081711 -5 4 C-5.99 4 -6.98 4 -8 4 C-8.33 5.32 -8.66 6.64 -9 8 C-10.0725 8.020625 -11.145 8.04125 -12.25 8.0625 C-18.64150332 8.86284698 -23.67313654 12.6065413 -29 16 C-30.06089844 16.66644531 -31.12179687 17.33289063 -32.21484375 18.01953125 C-34.81945338 19.66543 -37.4139355 21.32516689 -40 23 C-36.00240978 23 -34.24897149 21.21206569 -31 19 C-30.34 19 -29.68 19 -29 19 C-29 19.66 -29 20.32 -29 21 C-32.465 22.98 -32.465 22.98 -36 25 C-36 25.66 -36 26.32 -36 27 C-36.72574219 27.25523437 -37.45148438 27.51046875 -38.19921875 27.7734375 C-41.1552984 29.06801074 -43.30564666 30.60455104 -45.8125 32.625 C-46.60269531 33.25664062 -47.39289063 33.88828125 -48.20703125 34.5390625 C-48.79871094 35.02117187 -49.39039063 35.50328125 -50 36 C-50.66 35.67 -51.32 35.34 -52 35 C-49.10815664 30.88468445 -46.52241917 29.11046228 -42 27 C-41.67 26.34 -41.34 25.68 -41 25 C-42.65 25.33 -44.3 25.66 -46 26 C-45.67 25.01 -45.34 24.02 -45 23 C-49.5377902 22.91749472 -51.8966138 23.11729104 -55.5 26 C-59.75802258 30.11555086 -59.75802258 30.11555086 -63 35 C-62.34 35.33 -61.68 35.66 -61 36 C-63.97 36.495 -63.97 36.495 -67 37 C-66.8125 34.6875 -66.8125 34.6875 -66 32 C-63.8125 30.5625 -63.8125 30.5625 -61 29 C-57.8093568 26.23783646 -55.35056867 24.05170602 -54 20 C-56.64 19.34 -59.28 18.68 -62 18 C-57.92982104 16.98245526 -56.01810698 17.24660494 -52 18 C-50.68 18 -49.36 18 -48 18 C-47.67 18.99 -47.34 19.98 -47 21 C-43.36294844 22.11143074 -43.36294844 22.11143074 -39.88671875 20.8828125 C-39.16097656 20.30273438 -38.43523437 19.72265625 -37.6875 19.125 C-28.43020711 12.22335754 -11.77140182 0 0 0 Z " fill="#44A7FE" transform="translate(316,356)"/>
<path d="M0 0 C1.32 0 2.64 0 4 0 C4.33 1.65 4.66 3.3 5 5 C5.66 5 6.32 5 7 5 C5.42921185 8.68233943 3.13566869 11.25546115 0.4375 14.1875 C-0.36816406 15.06792969 -1.17382812 15.94835937 -2.00390625 16.85546875 C-4.92708115 19.99602261 -4.92708115 19.99602261 -8.4375 20.1875 C-12 20 -12 20 -14 18 C-13.80914031 15.26621555 -13.16086855 14.1677217 -11.2578125 12.18359375 C-10.55398438 11.60738281 -9.85015625 11.03117188 -9.125 10.4375 C-3.66410218 5.94307376 -3.66410218 5.94307376 0 0 Z " fill="#27D3F3" transform="translate(408,550)"/>
<path d="M0 0 C4 0 4 0 5.75 1.3125 C7 3 7 3 7 6 C6.40832031 6.18175781 5.81664062 6.36351562 5.20703125 6.55078125 C1.62468028 7.69035456 -1.57538013 8.74522808 -4.8125 10.6875 C-7 12 -7 12 -11 12 C-11 12.66 -11 13.32 -11 14 C-13.31 14.66 -15.62 15.32 -18 16 C-15.9861609 13.84261682 -14.09796497 12.34234338 -11.49609375 10.95703125 C-10.83802734 10.60576172 -10.17996094 10.25449219 -9.50195312 9.89257812 C-8.82068359 9.53615234 -8.13941406 9.17972656 -7.4375 8.8125 C-6.40979492 8.26045898 -6.40979492 8.26045898 -5.36132812 7.69726562 C-0.26204487 5 -0.26204487 5 2 5 C2 4.34 2 3.68 2 3 C-4.31271277 5.82031844 -10.54647208 8.74384296 -16.7109375 11.875 C-18.74276155 12.87357564 -20.78016728 13.76923855 -22.875 14.625 C-25.98568368 15.84198527 -25.98568368 15.84198527 -28.25 17.75 C-28.8275 18.1625 -29.405 18.575 -30 19 C-30.99 18.67 -31.98 18.34 -33 18 C-29.81758759 14.5425643 -26.25826713 12.00148149 -22.3125 9.5 C-21.6925415 9.10562744 -21.07258301 8.71125488 -20.43383789 8.30493164 C-7.75022216 0.36716667 -7.75022216 0.36716667 -1 1 C-0.67 0.67 -0.34 0.34 0 0 Z " fill="#3FA8FD" transform="translate(308,362)"/>
<path d="M0 0 C0.33 0.66 0.66 1.32 1 2 C1.99 2 2.98 2 4 2 C3 5 3 5 0 7 C-0.99 7 -1.98 7 -3 7 C-3.2475 7.5775 -3.495 8.155 -3.75 8.75 C-5.16683317 11.3002997 -6.87627537 13.01785701 -9 15 C-9.99 14.67 -10.98 14.34 -12 14 C-10.71451591 12.66070495 -9.42141845 11.32871357 -8.125 10 C-7.40570313 9.2575 -6.68640625 8.515 -5.9453125 7.75 C-4 6 -4 6 -2 6 C-2 5.34 -2 4.68 -2 4 C-2.79664063 4.70576172 -2.79664063 4.70576172 -3.609375 5.42578125 C-4.66898437 6.35970703 -4.66898437 6.35970703 -5.75 7.3125 C-6.44609375 7.92738281 -7.1421875 8.54226563 -7.859375 9.17578125 C-9.85114506 10.87314734 -11.88898915 12.45477809 -14 14 C-15.32 13.34 -16.64 12.68 -18 12 C-14.37679255 3.87523178 -9.04397835 -1.29199691 0 0 Z " fill="#2D7AFE" transform="translate(271,379)"/>
<path d="M0 0 C0 0.66 0 1.32 0 2 C1.32 2 2.64 2 4 2 C4 2.66 4 3.32 4 4 C1.85718967 5.46582355 -0.26706396 6.81123514 -2.5 8.125 C-3.43005859 8.68380859 -3.43005859 8.68380859 -4.37890625 9.25390625 C-5.91537838 10.17578953 -7.45720675 11.08873475 -9 12 C-7.02 11.34 -5.04 10.68 -3 10 C-4 13 -4 13 -6.25 14.75 C-9.41076857 16.18671298 -10.74770785 16.02214896 -14 15 C-14.33 14.01 -14.66 13.02 -15 12 C-15.99 12 -16.98 12 -18 12 C-13.54283943 7.09712338 -6.86404266 0 0 0 Z " fill="#3089FD" transform="translate(287,387)"/>
<path d="M0 0 C4.875 3.5 4.875 3.5 6 8 C2.7 8.66 -0.6 9.32 -4 10 C-4 10.66 -4 11.32 -4 12 C-8.38430311 14.07036536 -8.38430311 14.07036536 -11.1875 13.75 C-13 13 -13 13 -15 11 C-13.9275 10.731875 -12.855 10.46375 -11.75 10.1875 C-8.43491072 9.13772173 -6.56122354 8.25387672 -4 6 C-4.61488281 6.30035156 -5.22976563 6.60070312 -5.86328125 6.91015625 C-6.67152344 7.29042969 -7.47976563 7.67070312 -8.3125 8.0625 C-9.11300781 8.44535156 -9.91351563 8.82820313 -10.73828125 9.22265625 C-13 10 -13 10 -16 9 C-14.39318359 8.15115234 -14.39318359 8.15115234 -12.75390625 7.28515625 C-11.3567202 6.54436633 -9.95958753 5.80347571 -8.5625 5.0625 C-7.85544922 4.68931641 -7.14839844 4.31613281 -6.41992188 3.93164062 C-2.99521342 2.27507665 -2.99521342 2.27507665 0 0 Z " fill="#369DFC" transform="translate(306,400)"/>
<path d="M0 0 C0.33 0.99 0.66 1.98 1 3 C-0.4375 5.1875 -0.4375 5.1875 -2 7 C0.64 8.32 3.28 9.64 6 11 C6 11.66 6 12.32 6 13 C-0.52307692 12.50769231 -0.52307692 12.50769231 -2.9375 9.9375 C-3.288125 9.298125 -3.63875 8.65875 -4 8 C-8.61513112 9.31860889 -12.09897612 11.21355437 -16 14 C-16 10.04 -16 6.08 -16 2 C-14.80375 2.350625 -13.6075 2.70125 -12.375 3.0625 C-8.61263932 3.99641932 -5.77544028 4.16858866 -2 3 C-1.34 2.01 -0.68 1.02 0 0 Z " fill="#2F86FE" transform="translate(241,189)"/>
<path d="M0 0 C0.99 0.33 1.98 0.66 3 1 C3.66 0.67 4.32 0.34 5 0 C10.53846154 -0.23076923 10.53846154 -0.23076923 13 1 C13 1.66 13 2.32 13 3 C11.5459375 2.9071875 11.5459375 2.9071875 10.0625 2.8125 C5.38440054 2.78374119 1.32524418 4.35228793 -3 6 C-3 6.66 -3 7.32 -3 8 C-16.6332574 12.22323462 -16.6332574 12.22323462 -23 14 C-23 13.34 -23 12.68 -23 12 C-20.69 11.34 -18.38 10.68 -16 10 C-16 9.34 -16 8.68 -16 8 C-14.35 8 -12.7 8 -11 8 C-11 7.34 -11 6.68 -11 6 C-10.4225 5.7525 -9.845 5.505 -9.25 5.25 C-6.86733113 4.0681388 -6.86733113 4.0681388 -4.9375 1.875 C-3 0 -3 0 0 0 Z " fill="#55B9FE" transform="translate(261,416)"/>
<path d="M0 0 C2.26602254 1.25227561 3.64289649 2.42293254 5.375 4.3125 C6.365 4.9725 7.355 5.6325 8.375 6.3125 C6.395 6.9725 4.415 7.6325 2.375 8.3125 C2.375 8.9725 2.375 9.6325 2.375 10.3125 C1.715 10.9725 1.055 11.6325 0.375 12.3125 C-1.75 11.9375 -1.75 11.9375 -3.625 11.3125 C-3.625 10.3225 -3.625 9.3325 -3.625 8.3125 C-6.57229537 7.15438612 -6.57229537 7.15438612 -9.625 7.3125 C-8.3125 5.8125 -8.3125 5.8125 -6.625 4.3125 C-5.635 4.3125 -4.645 4.3125 -3.625 4.3125 C-3.625 3.6525 -3.625 2.9925 -3.625 2.3125 C-4.945 2.6425 -6.265 2.9725 -7.625 3.3125 C-7.625 2.6525 -7.625 1.9925 -7.625 1.3125 C-4.68610794 -0.1989302 -3.25568692 -0.85267991 0 0 Z " fill="#3490FD" transform="translate(282.625,407.6875)"/>
<path d="M0 0 C-0.73935791 0.39940796 -0.73935791 0.39940796 -1.49365234 0.80688477 C-14.25587991 7.67936792 -14.25587991 7.67936792 -26.15234375 15.91796875 C-27.06693359 16.45357422 -27.06693359 16.45357422 -28 17 C-28.99 16.67 -29.98 16.34 -31 16 C-27.81761492 12.54259399 -24.25834228 10.00133474 -20.3125 7.5 C-19.6932666 7.10635254 -19.0740332 6.71270508 -18.43603516 6.30712891 C-5.76467251 -1.61865189 -5.76467251 -1.61865189 0 0 Z " fill="#2A89FC" transform="translate(306,364)"/>
<path d="M0 0 C6.93 0.495 6.93 0.495 14 1 C13.67 2.65 13.34 4.3 13 6 C10.703125 7.0625 10.703125 7.0625 8 8 C5.75688944 9.84644419 5.75688944 9.84644419 3.75 12 C3.06421875 12.70125 2.3784375 13.4025 1.671875 14.125 C-0.06078209 15.90367296 -0.06078209 15.90367296 -1 18 C-0.34 18.33 0.32 18.66 1 19 C-0.98 19.33 -2.96 19.66 -5 20 C-4.8125 17.6875 -4.8125 17.6875 -4 15 C-1.8125 13.5625 -1.8125 13.5625 1 12 C4.1906432 9.23783646 6.64943133 7.05170602 8 3 C5.36 2.34 2.72 1.68 0 1 C0 0.67 0 0.34 0 0 Z " fill="#65B6FE" transform="translate(254,373)"/>
<path d="M0 0 C3.24208567 0.35049575 4.61527704 0.56221181 6.8125 3.0625 C7.204375 3.701875 7.59625 4.34125 8 5 C6.35 5 4.7 5 3 5 C3 5.66 3 6.32 3 7 C2.31292969 7.33773438 1.62585938 7.67546875 0.91796875 8.0234375 C0.01691406 8.46945312 -0.88414062 8.91546875 -1.8125 9.375 C-2.70582031 9.81585938 -3.59914063 10.25671875 -4.51953125 10.7109375 C-7.14556381 12.01866905 -7.14556381 12.01866905 -10 14 C-10.99 14 -11.98 14 -13 14 C-13 14.66 -13 15.32 -13 16 C-15.31 16.66 -17.62 17.32 -20 18 C-19.67 17.34 -19.34 16.68 -19 16 C-18.34 16 -17.68 16 -17 16 C-17 15.34 -17 14.68 -17 14 C-17.99 13.67 -18.98 13.34 -20 13 C-18 12 -18 12 -16.1159668 12.55224609 C-13.40232972 13.12647136 -12.50871514 12.54625546 -10.14453125 11.1640625 C-9.44005859 10.75929688 -8.73558594 10.35453125 -8.00976562 9.9375 C-7.28466797 9.504375 -6.55957031 9.07125 -5.8125 8.625 C-5.07580078 8.19960938 -4.33910156 7.77421875 -3.58007812 7.3359375 C-0.08839401 5.44122932 -0.08839401 5.44122932 3 3 C2.01 2.01 1.02 1.02 0 0 Z " fill="#3B9EFD" transform="translate(295,391)"/>
<path d="M0 0 C2.36244531 0.53015505 4.57186073 0.60095858 6.984375 0.4453125 C4.984375 2.4453125 4.984375 2.4453125 2.60522461 2.65649414 C1.62561768 2.63965576 0.64601074 2.62281738 -0.36328125 2.60546875 C-1.98459961 2.5890332 -1.98459961 2.5890332 -3.63867188 2.57226562 C-4.77369141 2.55099609 -5.90871094 2.52972656 -7.078125 2.5078125 C-14.49633904 2.39129605 -21.65686903 2.44078391 -29.015625 3.4453125 C-19.90957996 -2.62538419 -10.31234773 -2.59637124 0 0 Z " fill="#6CD1FE" transform="translate(284.015625,419.5546875)"/>
<path d="M0 0 C9.16056134 0.60750669 18.10050394 1.69272324 27 4 C27 4.66 27 5.32 27 6 C27.99 6.33 28.98 6.66 30 7 C24.59861583 7.1569755 19.62118596 6.59445275 14.3125 5.625 C13.56677734 5.49867188 12.82105469 5.37234375 12.05273438 5.2421875 C7.10387803 4.35925149 3.57120224 3.57120224 0 0 Z " fill="#378AFE" transform="translate(225,335)"/>
<path d="M0 0 C1.7074998 1.28062485 3.37373596 2.61767557 5 4 C5 4.66 5 5.32 5 6 C3.35 6.66 1.7 7.32 0 8 C-0.33 7.34 -0.66 6.68 -1 6 C-4.21238697 6.4867253 -6.62711036 7.28111844 -9.625 8.625 C-13 10 -13 10 -16 9 C-14.39318359 8.15115234 -14.39318359 8.15115234 -12.75390625 7.28515625 C-11.3567202 6.54436633 -9.95958753 5.80347571 -8.5625 5.0625 C-7.85544922 4.68931641 -7.14839844 4.31613281 -6.41992188 3.93164062 C-2.99521342 2.27507665 -2.99521342 2.27507665 0 0 Z " fill="#2C91F5" transform="translate(306,400)"/>
<path d="M0 0 C-1.45365269 1.17249353 -2.91307419 2.33783816 -4.375 3.5 C-5.59316406 4.47453125 -5.59316406 4.47453125 -6.8359375 5.46875 C-9 7 -9 7 -11 7 C-11 6.34 -11 5.68 -11 5 C-11.99 4.67 -12.98 4.34 -14 4 C-14 3.34 -14 2.68 -14 2 C-12.42085985 1.46658816 -10.83645613 0.94874237 -9.25 0.4375 C-8.36828125 0.14746094 -7.4865625 -0.14257812 -6.578125 -0.44140625 C-3.92165684 -1.01697435 -2.52968894 -0.89248371 0 0 Z " fill="#2E9DF5" transform="translate(326,360)"/>
<path d="M0 0 C0.33 0.99 0.66 1.98 1 3 C3.01508358 3.73323796 3.01508358 3.73323796 5 4 C4.40832031 4.18175781 3.81664062 4.36351562 3.20703125 4.55078125 C-0.37531972 5.69035456 -3.57538013 6.74522808 -6.8125 8.6875 C-9 10 -9 10 -13 10 C-13 10.66 -13 11.32 -13 12 C-15.31 12.66 -17.62 13.32 -20 14 C-17.9861609 11.84261682 -16.09796497 10.34234338 -13.49609375 8.95703125 C-12.83802734 8.60576172 -12.17996094 8.25449219 -11.50195312 7.89257812 C-10.82068359 7.53615234 -10.13941406 7.17972656 -9.4375 6.8125 C-8.75236328 6.44447266 -8.06722656 6.07644531 -7.36132812 5.69726562 C-2.26204487 3 -2.26204487 3 0 3 C0 2.01 0 1.02 0 0 Z " fill="#3AA5FC" transform="translate(310,364)"/>
<path d="M0 0 C0.70125 0.144375 1.4025 0.28875 2.125 0.4375 C4.13845838 0.83143751 6.16065087 1.18206288 8.1875 1.5 C11 2 11 2 13 3 C12.67 3.66 12.34 4.32 12 5 C13.4540625 5.433125 13.4540625 5.433125 14.9375 5.875 C18 7 18 7 19 9 C16 8 13 7 10 6 C7.64811553 6.59793673 5.31074405 7.25881795 3 8 C3.66 6.68 4.32 5.36 5 4 C4.34 3.67 3.68 3.34 3 3 C1.9805881 2.01979625 0.97753644 1.02196992 0 0 Z " fill="#81CBFE" transform="translate(285,351)"/>
<path d="M0 0 C0.66 0.66 1.32 1.32 2 2 C-0.95449913 3.6735337 -3.9142018 5.33763985 -6.875 7 C-7.71675781 7.47695313 -8.55851562 7.95390625 -9.42578125 8.4453125 C-10.63427734 9.12207031 -10.63427734 9.12207031 -11.8671875 9.8125 C-12.61081543 10.23144531 -13.35444336 10.65039062 -14.12060547 11.08203125 C-16 12 -16 12 -18 12 C-18 11.34 -18 10.68 -18 10 C-15 8 -15 8 -12 8 C-12 7.34 -12 6.68 -12 6 C-11.01 6 -10.02 6 -9 6 C-9 5.34 -9 4.68 -9 4 C-7.88625 3.525625 -6.7725 3.05125 -5.625 2.5625 C-3.73289006 1.74693537 -1.84287291 0.92143645 0 0 Z " fill="#2A88FC" transform="translate(297,393)"/>
<path d="M0 0 C0.80050781 0.37705078 0.80050781 0.37705078 1.6171875 0.76171875 C0.88113281 1.2928125 0.14507812 1.82390625 -0.61328125 2.37109375 C-1.58910156 3.0775 -2.56492187 3.78390625 -3.5703125 4.51171875 C-5.01470703 5.55585938 -5.01470703 5.55585938 -6.48828125 6.62109375 C-8.40492048 8.03852735 -10.28443064 9.50770808 -12.12109375 11.02734375 C-14.3828125 12.76171875 -14.3828125 12.76171875 -16.3828125 12.76171875 C-14.85079801 8.64797612 -11.91747838 6.48807069 -8.5078125 3.94921875 C-7.97800781 3.52962891 -7.44820313 3.11003906 -6.90234375 2.67773438 C-2.9544339 -0.29544339 -2.9544339 -0.29544339 0 0 Z " fill="#2C80FD" transform="translate(282.3828125,385.23828125)"/>
<path d="M0 0 C-0.33 0.99 -0.66 1.98 -1 3 C-3.83686787 3.85786411 -6.54453147 4.53747593 -9.4375 5.125 C-14.86432343 6.12235023 -14.86432343 6.12235023 -20 8 C-20 7.01 -20 6.02 -20 5 C-17.93847611 4.35105763 -15.87573742 3.7059736 -13.8125 3.0625 C-12.66394531 2.70285156 -11.51539063 2.34320313 -10.33203125 1.97265625 C-3.57429719 0 -3.57429719 0 0 0 Z " fill="#2FAFFB" transform="translate(336,350)"/>
<path d="M0 0 C0.9075 0.103125 1.815 0.20625 2.75 0.3125 C3.08 1.3025 3.41 2.2925 3.75 3.3125 C3.09 3.3125 2.43 3.3125 1.75 3.3125 C1.75 4.3025 1.75 5.2925 1.75 6.3125 C-1.22 5.9825 -4.19 5.6525 -7.25 5.3125 C-4.05 0.38942308 -4.05 0.38942308 0 0 Z " fill="#2F7CFE" transform="translate(238.25,407.6875)"/>
<path d="M0 0 C1.65 0 3.3 0 5 0 C2.92733168 2.24435921 1.00788067 3.68404081 -1.72265625 5.04296875 C-2.42583984 5.39423828 -3.12902344 5.74550781 -3.85351562 6.10742188 C-4.58248047 6.46384766 -5.31144531 6.82027344 -6.0625 7.1875 C-6.79533203 7.55552734 -7.52816406 7.92355469 -8.28320312 8.30273438 C-13.73278061 11 -13.73278061 11 -16 11 C-16 10.34 -16 9.68 -16 9 C-14 8 -12 7 -10 6 C-9.30390625 5.64035156 -8.6078125 5.28070313 -7.890625 4.91015625 C-6.83101563 4.36681641 -6.83101563 4.36681641 -5.75 3.8125 C-4.75226563 3.29623047 -4.75226563 3.29623047 -3.734375 2.76953125 C-2 2 -2 2 0 2 C0 1.34 0 0.68 0 0 Z " fill="#2A8AFC" transform="translate(298,396)"/>
<path d="M0 0 C2.64 0 5.28 0 8 0 C8.33 1.65 8.66 3.3 9 5 C3.51471837 5 -1.59322829 4.96120386 -7 4 C-7 3.67 -7 3.34 -7 3 C-5.5459375 2.814375 -5.5459375 2.814375 -4.0625 2.625 C-2.5465625 2.315625 -2.5465625 2.315625 -1 2 C-0.67 1.34 -0.34 0.68 0 0 Z " fill="#6AC4FD" transform="translate(305,420)"/>
<path d="M0 0 C0.763125 0.20625 1.52625 0.4125 2.3125 0.625 C2.3125 1.945 2.3125 3.265 2.3125 4.625 C-0.3275 4.955 -2.9675 5.285 -5.6875 5.625 C-5.6875 4.305 -5.6875 2.985 -5.6875 1.625 C-2.6875 -0.375 -2.6875 -0.375 0 0 Z " fill="#35A9F8" transform="translate(318.6875,415.375)"/>
<path d="M0 0 C0.66 0.66 1.32 1.32 2 2 C-4.27 4.97 -10.54 7.94 -17 11 C-17 10.01 -17 9.02 -17 8 C-11.39 5.36 -5.78 2.72 0 0 Z " fill="#2A8CFB" transform="translate(304,398)"/>
<path d="M0 0 C-4.455 3.465 -4.455 3.465 -9 7 C-10.32 6.34 -11.64 5.68 -13 5 C-9.28954414 0.67113483 -5.59289293 -1.39822323 0 0 Z " fill="#258BEE" transform="translate(314,369)"/>
<path d="M0 0 C-1.36911804 3.1489715 -2.8752136 5.0478487 -5.5 7.25 C-6.41265625 8.03117187 -6.41265625 8.03117187 -7.34375 8.828125 C-9 10 -9 10 -11 10 C-10.62207203 7.32543283 -10.20233084 6.19388186 -8.22265625 4.296875 C-7.50980469 3.78640625 -6.79695313 3.2759375 -6.0625 2.75 C-5.35222656 2.22921875 -4.64195312 1.7084375 -3.91015625 1.171875 C-2 0 -2 0 0 0 Z " fill="#2C7BFE" transform="translate(274,386)"/>
<path d="M0 0 C0 1.32 0 2.64 0 4 C-1.32 4 -2.64 4 -4 4 C-4 4.66 -4 5.32 -4 6 C-4.66 6 -5.32 6 -6 6 C-6.33 6.99 -6.66 7.98 -7 9 C-7.75 7.3125 -7.75 7.3125 -8 5 C-4.93181818 0 -4.93181818 0 0 0 Z " fill="#3E95FF" transform="translate(233,428)"/>
<path d="M0 0 C-3.96 2.64 -7.92 5.28 -12 8 C-12 5 -12 5 -11 3 C-10.34 3 -9.68 3 -9 3 C-9 2.34 -9 1.68 -9 1 C-2.25 -1.125 -2.25 -1.125 0 0 Z " fill="#54B1FF" transform="translate(238,431)"/>
<path d="M0 0 C0.66 0.66 1.32 1.32 2 2 C-0.26708325 2.8655047 -2.53775079 3.71759315 -4.8125 4.5625 C-5.45509766 4.80935547 -6.09769531 5.05621094 -6.75976562 5.31054688 C-11.66015625 7.11328125 -11.66015625 7.11328125 -15 6 C-13.35 5.67 -11.7 5.34 -10 5 C-10 4.34 -10 3.68 -10 3 C-5.05 1.515 -5.05 1.515 0 0 Z " fill="#2993F9" transform="translate(312,407)"/>
<path d="M0 0 C-1.50349377 3.66786393 -3.63728792 5.68910393 -6.625 8.25 C-7.44226563 8.95640625 -8.25953125 9.6628125 -9.1015625 10.390625 C-9.72804687 10.92171875 -10.35453125 11.4528125 -11 12 C-11.66 11.67 -12.32 11.34 -13 11 C-11.21427748 9.16052663 -9.42197551 7.32842259 -7.625 5.5 C-7.11710937 4.97535156 -6.60921875 4.45070313 -6.0859375 3.91015625 C-2.2265625 0 -2.2265625 0 0 0 Z " fill="#2D79FE" transform="translate(265,398)"/>
<path d="M0 0 C-0.33 0.99 -0.66 1.98 -1 3 C-3.6171875 3.984375 -3.6171875 3.984375 -6.875 4.75 C-7.94492187 5.01296875 -9.01484375 5.2759375 -10.1171875 5.546875 C-13 6 -13 6 -16 5 C-13.89828133 4.1605118 -11.79353375 3.32860344 -9.6875 2.5 C-8.51574219 2.0359375 -7.34398437 1.571875 -6.13671875 1.09375 C-3 0 -3 0 0 0 Z " fill="#35B0FB" transform="translate(328,356)"/>
<path d="M0 0 C0 3 0 3 -2.1875 5.48046875 C-3.115625 6.37378906 -4.04375 7.26710938 -5 8.1875 C-5.928125 9.08855469 -6.85625 9.98960937 -7.8125 10.91796875 C-8.534375 11.60503906 -9.25625 12.29210937 -10 13 C-10.66 12.67 -11.32 12.34 -12 12 C-8.39424999 7.41086363 -4.52615993 3.67832017 0 0 Z " fill="#2C77FE" transform="translate(261,396)"/>
<path d="M0 0 C2 2 2 2 2 4 C-0.31 4.33 -2.62 4.66 -5 5 C-5 4.34 -5 3.68 -5 3 C-5.66 2.67 -6.32 2.34 -7 2 C-5.26578631 -1.46842738 -3.40984787 -1.13661596 0 0 Z " fill="#45A8FE" transform="translate(288,416)"/>
<path d="M0 0 C0.99 0.33 1.98 0.66 3 1 C-0.96 4.3 -4.92 7.6 -9 11 C-9.66 10.67 -10.32 10.34 -11 10 C-5.555 5.05 -5.555 5.05 0 0 Z " fill="#2D7AFE" transform="translate(266,400)"/>
<path d="M0 0 C0.69287109 0.00451172 1.38574219 0.00902344 2.09960938 0.01367188 C3.79561068 0.02536844 5.49156703 0.04330076 7.1875 0.0625 C7.1875 0.3925 7.1875 0.7225 7.1875 1.0625 C5.5375 1.0625 3.8875 1.0625 2.1875 1.0625 C1.8575 1.7225 1.5275 2.3825 1.1875 3.0625 C1.1875 2.4025 1.1875 1.7425 1.1875 1.0625 C-3.29133696 1.50953986 -3.29133696 1.50953986 -6.8125 4.0625 C-6.8125 3.4025 -6.8125 2.7425 -6.8125 2.0625 C-8.7925 2.0625 -10.7725 2.0625 -12.8125 2.0625 C-12.8125 1.7325 -12.8125 1.4025 -12.8125 1.0625 C-8.52952469 0.00630997 -4.38264354 -0.05452092 0 0 Z " fill="#43AAFE" transform="translate(271.8125,420.9375)"/>
<path d="M0 0 C1.98 0 3.96 0 6 0 C6.66 1.32 7.32 2.64 8 4 C9.98 4 11.96 4 14 4 C13.01 4.66 12.02 5.32 11 6 C6.89272656 5.01782592 3.49078403 3.36141273 0 1 C0 0.67 0 0.34 0 0 Z " fill="#65BDFD" transform="translate(294,414)"/>
<path d="M0 0 C3.24208567 0.35049575 4.61527704 0.56221181 6.8125 3.0625 C7.204375 3.701875 7.59625 4.34125 8 5 C6.35 5 4.7 5 3 5 C3 5.66 3 6.32 3 7 C1.68 6.67 0.36 6.34 -1 6 C0.32 5.01 1.64 4.02 3 3 C2.01 2.01 1.02 1.02 0 0 Z " fill="#59ABF1" transform="translate(295,391)"/>
<path d="M0 0 C1.32 0 2.64 0 4 0 C4.33 1.32 4.66 2.64 5 4 C3.02 4.33 1.04 4.66 -1 5 C-0.67 3.35 -0.34 1.7 0 0 Z " fill="#28F6FC" transform="translate(408,550)"/>
<path d="M0 0 C0 0.66 0 1.32 0 2 C-1.11375 2.309375 -2.2275 2.61875 -3.375 2.9375 C-6.7945155 3.82326483 -6.7945155 3.82326483 -9 5 C-9.66 3.68 -10.32 2.36 -11 1 C-7.27569643 0.30710631 -3.78916254 -0.11144596 0 0 Z " fill="#41B3FD" transform="translate(323,421)"/>
<path d="M0 0 C1.32 0 2.64 0 4 0 C3.67 1.65 3.34 3.3 3 5 C1.68 5 0.36 5 -1 5 C-0.67 3.35 -0.34 1.7 0 0 Z " fill="#74F7FF" transform="translate(264,374)"/>
<path d="M0 0 C1.32 0 2.64 0 4 0 C4.33 0.99 4.66 1.98 5 3 C4.34 3.66 3.68 4.32 3 5 C0.875 4.625 0.875 4.625 -1 4 C-0.67 2.68 -0.34 1.36 0 0 Z " fill="#3B85FE" transform="translate(231,294)"/>
<path d="M0 0 C2.475 0.495 2.475 0.495 5 1 C4.67 2.32 4.34 3.64 4 5 C2.68 5 1.36 5 0 5 C0 3.35 0 1.7 0 0 Z " fill="#3A84FE" transform="translate(253,171)"/>
<path d="M0 0 C2.64 0 5.28 0 8 0 C8.33 0.99 8.66 1.98 9 3 C5.7 2.67 2.4 2.34 -1 2 C-0.67 1.34 -0.34 0.68 0 0 Z " fill="#2E7AFE" transform="translate(229,414)"/>
<path d="M0 0 C2.64 0.33 5.28 0.66 8 1 C7.67 1.99 7.34 2.98 7 4 C3.4375 5.1875 3.4375 5.1875 0 6 C0.33 5.34 0.66 4.68 1 4 C1.66 4 2.32 4 3 4 C3 3.34 3 2.68 3 2 C2.01 1.67 1.02 1.34 0 1 C0 0.67 0 0.34 0 0 Z " fill="#56AFFE" transform="translate(275,403)"/>
<path d="M0 0 C0.556875 0.226875 1.11375 0.45375 1.6875 0.6875 C-0.2925 2.0075 -2.2725 3.3275 -4.3125 4.6875 C-5.3025 4.0275 -6.2925 3.3675 -7.3125 2.6875 C-2.88173077 -0.38942308 -2.88173077 -0.38942308 0 0 Z " fill="#2391EA" transform="translate(324.3125,359.3125)"/>
<path d="M0 0 C1.65 0 3.3 0 5 0 C5.33 1.65 5.66 3.3 6 5 C3.03 4.505 3.03 4.505 0 4 C0 2.68 0 1.36 0 0 Z " fill="#BEE7FE" transform="translate(308,420)"/>
<path d="M0 0 C-1 3 -1 3 -3.375 4.75 C-6 6 -6 6 -9 5 C-7.87926138 4.16094435 -6.75325453 3.32892169 -5.625 2.5 C-4.99851562 2.0359375 -4.37203125 1.571875 -3.7265625 1.09375 C-2 0 -2 0 0 0 Z " fill="#2C84FD" transform="translate(284,397)"/>
<path d="M0 0 C4 0 4 0 5.75 1.375 C7 3 7 3 7 5 C5.68 5 4.36 5 3 5 C1.66666667 3.66666667 0.33333333 2.33333333 -1 1 C-0.67 0.67 -0.34 0.34 0 0 Z " fill="#5CC3FD" transform="translate(308,362)"/>
<path d="M0 0 C4.75 0.875 4.75 0.875 7 2 C6.67 3.65 6.34 5.3 6 7 C5.01 7 4.02 7 3 7 C3.66 6.01 4.32 5.02 5 4 C4.34 3.67 3.68 3.34 3 3 C1.9805881 2.01979625 0.97753644 1.02196992 0 0 Z " fill="#55B2FD" transform="translate(285,351)"/>
<path d="M0 0 C0.66 0.66 1.32 1.32 2 2 C0.02 3.98 -1.96 5.96 -4 8 C-4.66 7.67 -5.32 7.34 -6 7 C-4.02 4.69 -2.04 2.38 0 0 Z " fill="#3E97FF" transform="translate(248,392)"/>
<path d="M0 0 C3.1875 0.3125 3.1875 0.3125 6 1 C6 1.66 6 2.32 6 3 C3.03 3 0.06 3 -3 3 C-2.01 2.01 -1.02 1.02 0 0 Z " fill="#4BB1FE" transform="translate(291,420)"/>
<path d="M0 0 C2.475 0.495 2.475 0.495 5 1 C5 1.66 5 2.32 5 3 C6.32 3.66 7.64 4.32 9 5 C3.48387097 4.38709677 3.48387097 4.38709677 1.125 2.5 C0 1 0 1 0 0 Z " fill="#40A0FD" transform="translate(280,349)"/>
<path d="M0 0 C-1.65 1.32 -3.3 2.64 -5 4 C-5.66 3.67 -6.32 3.34 -7 3 C-7 2.01 -7 1.02 -7 0 C-3.86650268 -1.04449911 -3.01031744 -0.93423645 0 0 Z " fill="#62C7FC" transform="translate(320,416)"/>
<path d="M0 0 C-0.33 0.99 -0.66 1.98 -1 3 C-3.5625 4.1875 -3.5625 4.1875 -6 5 C-6.33 4.34 -6.66 3.68 -7 3 C-2.25 0 -2.25 0 0 0 Z " fill="#2B87FD" transform="translate(290,380)"/>
</svg>
